<svg width="68" height="48" viewBox="0 0 68 48" fill="none" xmlns="http://www.w3.org/2000/svg">
<path d="M14.862 44.83C14.982 45.01 15.042 45.18 15.042 45.34C15.042 45.5533 14.952 45.7333 14.772 45.88C14.5987 46.02 14.3953 46.09 14.162 46.09C14.002 46.09 13.852 46.0533 13.712 45.98C13.572 45.9067 13.452 45.7967 13.352 45.65L12.052 43.75C11.9587 43.6167 11.8587 43.52 11.752 43.46C11.652 43.3933 11.532 43.36 11.392 43.36H10.742V45.15C10.742 45.43 10.662 45.6533 10.502 45.82C10.342 45.98 10.122 46.06 9.84199 46.06C9.56199 46.06 9.33866 45.98 9.17199 45.82C9.01199 45.6533 8.93199 45.43 8.93199 45.15V39.8C8.93199 39.5267 9.00533 39.3167 9.15199 39.17C9.29866 39.0233 9.50866 38.95 9.78199 38.95H12.292C13.1453 38.95 13.7853 39.1367 14.212 39.51C14.6453 39.8767 14.862 40.41 14.862 41.11C14.862 41.6433 14.7153 42.0967 14.422 42.47C14.1287 42.8367 13.7153 43.0833 13.182 43.21C13.402 43.2433 13.592 43.3167 13.752 43.43C13.9187 43.5433 14.082 43.7133 14.242 43.94L14.862 44.83ZM12.002 41.98C12.4087 41.98 12.6987 41.9167 12.872 41.79C13.052 41.6633 13.142 41.4567 13.142 41.17C13.142 40.8767 13.052 40.6667 12.872 40.54C12.6987 40.4067 12.4087 40.34 12.002 40.34H10.722V41.98H12.002ZM19.8823 44.42C20.0356 44.42 20.159 44.48 20.2523 44.6C20.3523 44.72 20.4023 44.8767 20.4023 45.07C20.4023 45.3367 20.2723 45.54 20.0123 45.68C19.7856 45.7933 19.5156 45.89 19.2023 45.97C18.8956 46.0433 18.6123 46.08 18.3523 46.08C17.8056 46.08 17.329 45.9767 16.9223 45.77C16.5156 45.5633 16.2023 45.2667 15.9823 44.88C15.7623 44.4933 15.6523 44.04 15.6523 43.52C15.6523 43.0267 15.7556 42.5867 15.9623 42.2C16.1756 41.8067 16.469 41.5033 16.8423 41.29C17.2223 41.07 17.649 40.96 18.1223 40.96C18.5823 40.96 18.9856 41.06 19.3323 41.26C19.679 41.46 19.9456 41.7433 20.1323 42.11C20.3256 42.4767 20.4223 42.9067 20.4223 43.4C20.4223 43.5533 20.3856 43.6733 20.3123 43.76C20.2456 43.84 20.1456 43.88 20.0123 43.88H17.3723C17.419 44.2 17.5223 44.43 17.6823 44.57C17.8423 44.71 18.079 44.78 18.3923 44.78C18.559 44.78 18.7123 44.7633 18.8523 44.73C18.9923 44.69 19.149 44.6367 19.3223 44.57C19.4223 44.53 19.519 44.4967 19.6123 44.47C19.7123 44.4367 19.8023 44.42 19.8823 44.42ZM18.1723 42.16C17.939 42.16 17.7523 42.2367 17.6123 42.39C17.4723 42.5367 17.389 42.7533 17.3623 43.04H18.9323C18.8923 42.4533 18.639 42.16 18.1723 42.16ZM23.6039 46.08C22.8039 46.08 22.1705 45.8533 21.7039 45.4C21.2372 44.9467 21.0039 44.33 21.0039 43.55C21.0039 43.0367 21.1172 42.5833 21.3439 42.19C21.5705 41.7967 21.8872 41.4933 22.2939 41.28C22.7072 41.0667 23.1772 40.96 23.7039 40.96C23.9839 40.96 24.2639 40.9967 24.5439 41.07C24.8239 41.1433 25.0705 41.2467 25.2839 41.38C25.4905 41.5067 25.5939 41.7 25.5939 41.96C25.5939 42.1667 25.5439 42.3367 25.4439 42.47C25.3505 42.5967 25.2272 42.66 25.0739 42.66C24.9739 42.66 24.8772 42.6467 24.7839 42.62C24.6905 42.5867 24.5872 42.54 24.4739 42.48C24.3405 42.42 24.2272 42.3767 24.1339 42.35C24.0405 42.3167 23.9372 42.3 23.8239 42.3C23.1639 42.3 22.8339 42.7033 22.8339 43.51C22.8339 43.91 22.9172 44.2167 23.0839 44.43C23.2572 44.6367 23.5039 44.74 23.8239 44.74C23.9372 44.74 24.0405 44.7267 24.1339 44.7C24.2339 44.6667 24.3439 44.62 24.4639 44.56C24.5972 44.5 24.7039 44.4567 24.7839 44.43C24.8705 44.3967 24.9639 44.38 25.0639 44.38C25.2172 44.38 25.3405 44.4467 25.4339 44.58C25.5339 44.7067 25.5839 44.8733 25.5839 45.08C25.5839 45.2067 25.5572 45.3233 25.5039 45.43C25.4505 45.53 25.3772 45.6067 25.2839 45.66C24.8239 45.94 24.2639 46.08 23.6039 46.08ZM29.5839 40.96C30.1572 40.96 30.5839 41.1367 30.8639 41.49C31.1439 41.8367 31.2839 42.3667 31.2839 43.08V45.24C31.2839 45.4933 31.2039 45.6933 31.0439 45.84C30.8839 45.9867 30.6672 46.06 30.3939 46.06C30.1205 46.06 29.9039 45.9867 29.7439 45.84C29.5839 45.6933 29.5039 45.4933 29.5039 45.24V43.04C29.5039 42.56 29.2972 42.32 28.8839 42.32C28.6172 42.32 28.4039 42.4067 28.2439 42.58C28.0905 42.7467 28.0139 42.9733 28.0139 43.26V45.24C28.0139 45.4933 27.9339 45.6933 27.7739 45.84C27.6139 45.9867 27.3972 46.06 27.1239 46.06C26.8505 46.06 26.6339 45.9867 26.4739 45.84C26.3139 45.6933 26.2339 45.4933 26.2339 45.24V39.7C26.2339 39.4667 26.3172 39.2767 26.4839 39.13C26.6505 38.9767 26.8705 38.9 27.1439 38.9C27.4039 38.9 27.6139 38.97 27.7739 39.11C27.9339 39.25 28.0139 39.4367 28.0139 39.67V41.67C28.1939 41.4367 28.4172 41.26 28.6839 41.14C28.9505 41.02 29.2505 40.96 29.5839 40.96ZM34.5786 40.96C35.3386 40.96 35.8986 41.1433 36.2586 41.51C36.6252 41.87 36.8086 42.42 36.8086 43.16V45.25C36.8086 45.5033 36.7319 45.7033 36.5786 45.85C36.4319 45.99 36.2252 46.06 35.9586 46.06C35.7252 46.06 35.5319 45.9933 35.3786 45.86C35.2319 45.7267 35.1519 45.5467 35.1386 45.32C35.0452 45.56 34.8886 45.7467 34.6686 45.88C34.4486 46.0133 34.1852 46.08 33.8786 46.08C33.5386 46.08 33.2319 46.0133 32.9586 45.88C32.6852 45.74 32.4686 45.55 32.3086 45.31C32.1552 45.0633 32.0786 44.7867 32.0786 44.48C32.0786 44.1267 32.1686 43.8467 32.3486 43.64C32.5352 43.4267 32.8286 43.2733 33.2286 43.18C33.6286 43.0867 34.1686 43.04 34.8486 43.04H35.1186V42.92C35.1186 42.6867 35.0652 42.52 34.9586 42.42C34.8519 42.3133 34.6719 42.26 34.4186 42.26C34.1452 42.26 33.7452 42.3533 33.2186 42.54C33.0652 42.5933 32.9352 42.62 32.8286 42.62C32.6619 42.62 32.5286 42.56 32.4286 42.44C32.3286 42.32 32.2786 42.1633 32.2786 41.97C32.2786 41.8233 32.3086 41.7033 32.3686 41.61C32.4286 41.5167 32.5252 41.4333 32.6586 41.36C32.8919 41.24 33.1852 41.1433 33.5386 41.07C33.8919 40.9967 34.2386 40.96 34.5786 40.96ZM34.2986 44.89C34.5386 44.89 34.7352 44.8067 34.8886 44.64C35.0419 44.4667 35.1186 44.2467 35.1186 43.98V43.86H34.9586C34.5319 43.86 34.2286 43.9 34.0486 43.98C33.8686 44.0533 33.7786 44.18 33.7786 44.36C33.7786 44.5133 33.8252 44.64 33.9186 44.74C34.0186 44.84 34.1452 44.89 34.2986 44.89ZM41.5361 44.69C42.0695 44.69 42.3361 44.9067 42.3361 45.34C42.3361 45.78 42.0695 46 41.5361 46H38.3861C38.1528 46 37.9628 45.9267 37.8161 45.78C37.6695 45.6333 37.5961 45.4567 37.5961 45.25C37.5961 45.03 37.6795 44.8267 37.8461 44.64L39.9461 42.39H38.3361C37.8028 42.39 37.5361 42.17 37.5361 41.73C37.5361 41.2967 37.8028 41.08 38.3361 41.08H41.3661C41.5995 41.08 41.7895 41.1533 41.9361 41.3C42.0828 41.4467 42.1561 41.6233 42.1561 41.83C42.1561 42.0433 42.0728 42.2433 41.9061 42.43L39.7961 44.69H41.5361ZM45.2329 40.96C45.9929 40.96 46.5529 41.1433 46.9129 41.51C47.2795 41.87 47.4629 42.42 47.4629 43.16V45.25C47.4629 45.5033 47.3862 45.7033 47.2329 45.85C47.0862 45.99 46.8795 46.06 46.6129 46.06C46.3795 46.06 46.1862 45.9933 46.0329 45.86C45.8862 45.7267 45.8062 45.5467 45.7929 45.32C45.6995 45.56 45.5429 45.7467 45.3229 45.88C45.1029 46.0133 44.8395 46.08 44.5329 46.08C44.1929 46.08 43.8862 46.0133 43.6129 45.88C43.3395 45.74 43.1229 45.55 42.9629 45.31C42.8095 45.0633 42.7329 44.7867 42.7329 44.48C42.7329 44.1267 42.8229 43.8467 43.0029 43.64C43.1895 43.4267 43.4829 43.2733 43.8829 43.18C44.2829 43.0867 44.8229 43.04 45.5029 43.04H45.7729V42.92C45.7729 42.6867 45.7195 42.52 45.6129 42.42C45.5062 42.3133 45.3262 42.26 45.0729 42.26C44.7995 42.26 44.3995 42.3533 43.8729 42.54C43.7195 42.5933 43.5895 42.62 43.4829 42.62C43.3162 42.62 43.1829 42.56 43.0829 42.44C42.9829 42.32 42.9329 42.1633 42.9329 41.97C42.9329 41.8233 42.9629 41.7033 43.0229 41.61C43.0829 41.5167 43.1795 41.4333 43.3129 41.36C43.5462 41.24 43.8395 41.1433 44.1929 41.07C44.5462 40.9967 44.8929 40.96 45.2329 40.96ZM44.9529 44.89C45.1929 44.89 45.3895 44.8067 45.5429 44.64C45.6962 44.4667 45.7729 44.2467 45.7729 43.98V43.86H45.6129C45.1862 43.86 44.8829 43.9 44.7029 43.98C44.5229 44.0533 44.4329 44.18 44.4329 44.36C44.4329 44.5133 44.4795 44.64 44.5729 44.74C44.6729 44.84 44.7995 44.89 44.9529 44.89ZM52.7604 38.9C53.0271 38.9 53.2438 38.9767 53.4104 39.13C53.5838 39.2767 53.6704 39.4667 53.6704 39.7V45.24C53.6704 45.4933 53.5904 45.6933 53.4304 45.84C53.2704 45.9867 53.0571 46.06 52.7904 46.06C52.5438 46.06 52.3404 45.9967 52.1804 45.87C52.0271 45.7367 51.9404 45.5567 51.9204 45.33C51.7804 45.5633 51.5738 45.7467 51.3004 45.88C51.0338 46.0133 50.7371 46.08 50.4104 46.08C49.9904 46.08 49.6138 45.9733 49.2804 45.76C48.9538 45.54 48.6971 45.2333 48.5104 44.84C48.3238 44.4467 48.2304 43.9967 48.2304 43.49C48.2304 42.9833 48.3204 42.54 48.5004 42.16C48.6871 41.7733 48.9438 41.4767 49.2704 41.27C49.6038 41.0633 49.9838 40.96 50.4104 40.96C50.7238 40.96 51.0104 41.0233 51.2704 41.15C51.5371 41.2767 51.7438 41.4467 51.8904 41.66V39.67C51.8904 39.4367 51.9671 39.25 52.1204 39.11C52.2804 38.97 52.4938 38.9 52.7604 38.9ZM50.9504 44.75C51.2638 44.75 51.5038 44.6433 51.6704 44.43C51.8371 44.2167 51.9204 43.91 51.9204 43.51C51.9204 43.1167 51.8371 42.8167 51.6704 42.61C51.5038 42.3967 51.2638 42.29 50.9504 42.29C50.6438 42.29 50.4071 42.3933 50.2404 42.6C50.0738 42.8067 49.9904 43.1033 49.9904 43.49C49.9904 43.89 50.0738 44.2 50.2404 44.42C50.4138 44.64 50.6504 44.75 50.9504 44.75ZM57.0004 40.96C57.7604 40.96 58.3204 41.1433 58.6804 41.51C59.0471 41.87 59.2304 42.42 59.2304 43.16V45.25C59.2304 45.5033 59.1538 45.7033 59.0004 45.85C58.8538 45.99 58.6471 46.06 58.3804 46.06C58.1471 46.06 57.9538 45.9933 57.8004 45.86C57.6538 45.7267 57.5738 45.5467 57.5604 45.32C57.4671 45.56 57.3104 45.7467 57.0904 45.88C56.8704 46.0133 56.6071 46.08 56.3004 46.08C55.9604 46.08 55.6538 46.0133 55.3804 45.88C55.1071 45.74 54.8904 45.55 54.7304 45.31C54.5771 45.0633 54.5004 44.7867 54.5004 44.48C54.5004 44.1267 54.5904 43.8467 54.7704 43.64C54.9571 43.4267 55.2504 43.2733 55.6504 43.18C56.0504 43.0867 56.5904 43.04 57.2704 43.04H57.5404V42.92C57.5404 42.6867 57.4871 42.52 57.3804 42.42C57.2738 42.3133 57.0938 42.26 56.8404 42.26C56.5671 42.26 56.1671 42.3533 55.6404 42.54C55.4871 42.5933 55.3571 42.62 55.2504 42.62C55.0838 42.62 54.9504 42.56 54.8504 42.44C54.7504 42.32 54.7004 42.1633 54.7004 41.97C54.7004 41.8233 54.7304 41.7033 54.7904 41.61C54.8504 41.5167 54.9471 41.4333 55.0804 41.36C55.3138 41.24 55.6071 41.1433 55.9604 41.07C56.3138 40.9967 56.6604 40.96 57.0004 40.96ZM56.7204 44.89C56.9604 44.89 57.1571 44.8067 57.3104 44.64C57.4638 44.4667 57.5404 44.2467 57.5404 43.98V43.86H57.3804C56.9538 43.86 56.6504 43.9 56.4704 43.98C56.2904 44.0533 56.2004 44.18 56.2004 44.36C56.2004 44.5133 56.2471 44.64 56.3404 44.74C56.4404 44.84 56.5671 44.89 56.7204 44.89Z" fill="#E86060"/>
<g clip-path="url(#clip0)">
<path d="M45.3516 25.0764V7.72949L17.5093 8.92348V26.2704C17.5092 26.6679 17.7059 27.0653 18.0993 27.2925L29.1288 33.6604C29.9132 34.1133 30.8796 34.1133 31.6641 33.6604L44.7615 26.0986C45.1549 25.8714 45.3516 25.4739 45.3516 25.0764Z" fill="url(#paint0_linear)"/>
<path d="M18.0994 7.90148L31.1967 0.339668C31.9812 -0.113223 32.9476 -0.113223 33.732 0.339668L44.7615 6.70756C45.5482 7.16178 45.5482 8.29733 44.7615 8.75155L31.6641 16.3133C30.8796 16.7662 29.9132 16.7662 29.1288 16.3133L18.0994 9.94547C17.3126 9.49125 17.3126 8.3557 18.0994 7.90148Z" fill="url(#paint1_linear)"/>
<path d="M22.3459 5.44958L36.4132 13.5713L40.1447 11.4169L26.0774 3.29523L22.3459 5.44958Z" fill="#DEA861"/>
<path d="M24.5764 4.16083L38.6436 12.2826L37.9127 12.7046L23.8455 4.58284L24.5764 4.16083Z" fill="#CC8241"/>
<path d="M36.4133 13.5713V16.653L40.1449 14.4986V11.4169L36.4133 13.5713Z" fill="#CC8241"/>
<path d="M46.1026 20.7562L46.0825 20.7118L50.0812 13.0428L47.3013 11.4665C46.8581 11.1315 46.1396 11.5464 45.6964 12.3931L42.8759 17.7822L42.2565 17.3984L39.7358 15.9431L39.6543 15.8814C39.5966 15.8379 39.5342 15.8076 39.4684 15.7887L39.4674 15.7881L39.4676 15.7885C39.0279 15.6629 38.4347 16.0719 38.0494 16.8081C37.6063 17.6548 37.6063 18.6129 38.0494 18.9479L41.0704 21.2318L38.0494 27.004C37.6063 27.8508 37.6063 28.8088 38.0494 29.1439H38.0494C38.0864 29.1718 38.1258 29.1926 38.1663 29.2104L40.9062 30.769L44.667 23.9507L45.6964 24.7289C45.7346 24.7578 45.7755 24.7791 45.8175 24.7971L45.8182 24.7993L48.6589 26.417L46.1026 20.7562Z" fill="url(#paint2_linear)"/>
<path d="M43.9272 22.857L41.0704 21.2319L38.0494 27.0041C37.6063 27.8508 37.6063 28.8089 38.0494 29.144H38.0494C38.0864 29.1719 38.1258 29.1927 38.1663 29.2105L40.9062 30.7691L43.9272 22.857Z" fill="url(#paint3_linear)"/>
<path d="M47.3014 11.4665C46.8582 11.1315 46.1397 11.5464 45.6965 12.3931L42.876 17.7822L45.5323 19.7904L50.0813 13.0428L47.3014 11.4665Z" fill="url(#paint4_linear)"/>
<path d="M50.1582 13.0916C49.715 12.7566 48.9965 13.1714 48.5533 14.0182L45.5323 19.7904L42.5113 17.5066C42.0681 17.1715 41.3496 17.5864 40.9064 18.4331C40.4632 19.2799 40.4632 20.2379 40.9064 20.573L43.9274 22.8569L40.9064 28.6291C40.4632 29.4759 40.4632 30.4339 40.9064 30.769C41.3496 31.104 42.0681 30.6892 42.5113 29.8424L45.5323 24.0702L48.5533 26.3541C48.9965 26.6891 49.715 26.2742 50.1582 25.4274V25.4274C50.6014 24.5806 50.6014 23.6226 50.1582 23.2875L47.1372 21.0036L50.1582 15.2314C50.6014 14.3847 50.6014 13.4266 50.1582 13.0916Z" fill="#FF4757"/>
</g>
<defs>
<linearGradient id="paint0_linear" x1="28.1711" y1="20.8648" x2="31.9957" y2="20.8648" gradientUnits="userSpaceOnUse">
<stop stop-color="#CC8241"/>
<stop offset="1" stop-color="#DEA861"/>
</linearGradient>
<linearGradient id="paint1_linear" x1="23.6791" y1="3.8513" x2="38.0022" y2="12.1207" gradientUnits="userSpaceOnUse">
<stop stop-color="#DEA861"/>
<stop offset="1" stop-color="#EBCBA0"/>
</linearGradient>
<linearGradient id="paint2_linear" x1="43.7728" y1="20.8848" x2="45.642" y2="17.6472" gradientUnits="userSpaceOnUse">
<stop stop-color="#AB2C37"/>
<stop offset="1" stop-color="#FF959D"/>
</linearGradient>
<linearGradient id="paint3_linear" x1="42.5663" y1="23.2673" x2="37.409" y2="32.1999" gradientUnits="userSpaceOnUse">
<stop stop-color="#AB2C37"/>
<stop offset="0.1833" stop-color="#B53944"/>
<stop offset="0.5224" stop-color="#D15B65"/>
<stop offset="0.9768" stop-color="#FD929A"/>
<stop offset="1" stop-color="#FF959D"/>
</linearGradient>
<linearGradient id="paint4_linear" x1="46.5832" y1="14.977" x2="49.742" y2="9.5059" gradientUnits="userSpaceOnUse">
<stop stop-color="#AB2C37"/>
<stop offset="1" stop-color="#FF959D"/>
</linearGradient>
<clipPath id="clip0">
<rect width="34" height="34" fill="white" transform="translate(17)"/>
</clipPath>
</defs>
</svg>
