<svg width="68" height="48" viewBox="0 0 68 48" fill="none" xmlns="http://www.w3.org/2000/svg">
<path d="M20.2429 44.83C20.3629 45.01 20.4229 45.18 20.4229 45.34C20.4229 45.5533 20.3329 45.7333 20.1529 45.88C19.9795 46.02 19.7762 46.09 19.5429 46.09C19.3829 46.09 19.2329 46.0533 19.0929 45.98C18.9529 45.9067 18.8329 45.7967 18.7329 45.65L17.4329 43.75C17.3395 43.6167 17.2395 43.52 17.1329 43.46C17.0329 43.3933 16.9129 43.36 16.7729 43.36H16.1229V45.15C16.1229 45.43 16.0429 45.6533 15.8829 45.82C15.7229 45.98 15.5029 46.06 15.2229 46.06C14.9429 46.06 14.7195 45.98 14.5529 45.82C14.3929 45.6533 14.3129 45.43 14.3129 45.15V39.8C14.3129 39.5267 14.3862 39.3167 14.5329 39.17C14.6795 39.0233 14.8895 38.95 15.1629 38.95H17.6729C18.5262 38.95 19.1662 39.1367 19.5929 39.51C20.0262 39.8767 20.2429 40.41 20.2429 41.11C20.2429 41.6433 20.0962 42.0967 19.8029 42.47C19.5095 42.8367 19.0962 43.0833 18.5629 43.21C18.7829 43.2433 18.9729 43.3167 19.1329 43.43C19.2995 43.5433 19.4629 43.7133 19.6229 43.94L20.2429 44.83ZM17.3829 41.98C17.7895 41.98 18.0795 41.9167 18.2529 41.79C18.4329 41.6633 18.5229 41.4567 18.5229 41.17C18.5229 40.8767 18.4329 40.6667 18.2529 40.54C18.0795 40.4067 17.7895 40.34 17.3829 40.34H16.1029V41.98H17.3829ZM25.2632 44.42C25.4165 44.42 25.5398 44.48 25.6332 44.6C25.7332 44.72 25.7832 44.8767 25.7832 45.07C25.7832 45.3367 25.6532 45.54 25.3932 45.68C25.1665 45.7933 24.8965 45.89 24.5832 45.97C24.2765 46.0433 23.9932 46.08 23.7332 46.08C23.1865 46.08 22.7098 45.9767 22.3032 45.77C21.8965 45.5633 21.5832 45.2667 21.3632 44.88C21.1432 44.4933 21.0332 44.04 21.0332 43.52C21.0332 43.0267 21.1365 42.5867 21.3432 42.2C21.5565 41.8067 21.8498 41.5033 22.2232 41.29C22.6032 41.07 23.0298 40.96 23.5032 40.96C23.9632 40.96 24.3665 41.06 24.7132 41.26C25.0598 41.46 25.3265 41.7433 25.5132 42.11C25.7065 42.4767 25.8032 42.9067 25.8032 43.4C25.8032 43.5533 25.7665 43.6733 25.6932 43.76C25.6265 43.84 25.5265 43.88 25.3932 43.88H22.7532C22.7998 44.2 22.9032 44.43 23.0632 44.57C23.2232 44.71 23.4598 44.78 23.7732 44.78C23.9398 44.78 24.0932 44.7633 24.2332 44.73C24.3732 44.69 24.5298 44.6367 24.7032 44.57C24.8032 44.53 24.8998 44.4967 24.9932 44.47C25.0932 44.4367 25.1832 44.42 25.2632 44.42ZM23.5532 42.16C23.3198 42.16 23.1332 42.2367 22.9932 42.39C22.8532 42.5367 22.7698 42.7533 22.7432 43.04H24.3132C24.2732 42.4533 24.0198 42.16 23.5532 42.16ZM29.4075 44.79C29.8542 44.8167 30.0775 45.0167 30.0775 45.39C30.0775 45.6233 29.9875 45.7967 29.8075 45.91C29.6275 46.0233 29.3709 46.07 29.0375 46.05L28.7575 46.03C28.1575 45.9833 27.7009 45.8033 27.3875 45.49C27.0809 45.17 26.9275 44.7267 26.9275 44.16V42.39H26.6375C26.1042 42.39 25.8375 42.17 25.8375 41.73C25.8375 41.2967 26.1042 41.08 26.6375 41.08H26.9275V40.43C26.9275 40.1767 27.0075 39.9767 27.1675 39.83C27.3275 39.6767 27.5442 39.6 27.8175 39.6C28.0909 39.6 28.3075 39.6767 28.4675 39.83C28.6275 39.9767 28.7075 40.1767 28.7075 40.43V41.08H29.2575C29.7909 41.08 30.0575 41.2967 30.0575 41.73C30.0575 42.17 29.7909 42.39 29.2575 42.39H28.7075V44.31C28.7075 44.4367 28.7442 44.5433 28.8175 44.63C28.8975 44.7167 28.9975 44.7633 29.1175 44.77L29.4075 44.79ZM31.4403 46.06C31.1869 46.06 30.9736 45.9933 30.8003 45.86C30.6336 45.72 30.5503 45.5133 30.5503 45.24V41.8C30.5503 41.5267 30.6336 41.3233 30.8003 41.19C30.9736 41.05 31.1869 40.98 31.4403 40.98C31.6936 40.98 31.9036 41.05 32.0703 41.19C32.2436 41.3233 32.3303 41.5267 32.3303 41.8V45.24C32.3303 45.5133 32.2436 45.72 32.0703 45.86C31.9036 45.9933 31.6936 46.06 31.4403 46.06ZM31.4403 40.28C31.1403 40.28 30.9003 40.2033 30.7203 40.05C30.5469 39.89 30.4603 39.68 30.4603 39.42C30.4603 39.16 30.5469 38.9533 30.7203 38.8C30.9003 38.6467 31.1403 38.57 31.4403 38.57C31.7336 38.57 31.9703 38.6467 32.1503 38.8C32.3303 38.9533 32.4203 39.16 32.4203 39.42C32.4203 39.68 32.3303 39.89 32.1503 40.05C31.9769 40.2033 31.7403 40.28 31.4403 40.28ZM36.4828 40.98C36.7094 40.96 36.8894 41.0133 37.0228 41.14C37.1561 41.26 37.2228 41.44 37.2228 41.68C37.2228 41.9467 37.1594 42.14 37.0328 42.26C36.9128 42.38 36.6928 42.4567 36.3728 42.49L36.0728 42.52C35.7394 42.56 35.4994 42.6667 35.3528 42.84C35.2128 43.0067 35.1428 43.2367 35.1428 43.53V45.24C35.1428 45.5133 35.0561 45.72 34.8828 45.86C34.7161 45.9933 34.5061 46.06 34.2528 46.06C33.9994 46.06 33.7861 45.9933 33.6128 45.86C33.4461 45.72 33.3628 45.5133 33.3628 45.24V41.78C33.3628 41.5267 33.4461 41.33 33.6128 41.19C33.7861 41.05 33.9928 40.98 34.2328 40.98C34.4794 40.98 34.6761 41.0467 34.8228 41.18C34.9761 41.3133 35.0528 41.5 35.0528 41.74V41.93C35.1594 41.6367 35.3328 41.41 35.5728 41.25C35.8194 41.09 36.0761 41.0033 36.3428 40.99L36.4828 40.98ZM39.852 40.96C40.612 40.96 41.172 41.1433 41.532 41.51C41.8987 41.87 42.082 42.42 42.082 43.16V45.25C42.082 45.5033 42.0053 45.7033 41.852 45.85C41.7053 45.99 41.4987 46.06 41.232 46.06C40.9987 46.06 40.8053 45.9933 40.652 45.86C40.5053 45.7267 40.4253 45.5467 40.412 45.32C40.3187 45.56 40.162 45.7467 39.942 45.88C39.722 46.0133 39.4587 46.08 39.152 46.08C38.812 46.08 38.5053 46.0133 38.232 45.88C37.9587 45.74 37.742 45.55 37.582 45.31C37.4287 45.0633 37.352 44.7867 37.352 44.48C37.352 44.1267 37.442 43.8467 37.622 43.64C37.8087 43.4267 38.102 43.2733 38.502 43.18C38.902 43.0867 39.442 43.04 40.122 43.04H40.392V42.92C40.392 42.6867 40.3387 42.52 40.232 42.42C40.1253 42.3133 39.9453 42.26 39.692 42.26C39.4187 42.26 39.0187 42.3533 38.492 42.54C38.3387 42.5933 38.2087 42.62 38.102 42.62C37.9353 42.62 37.802 42.56 37.702 42.44C37.602 42.32 37.552 42.1633 37.552 41.97C37.552 41.8233 37.582 41.7033 37.642 41.61C37.702 41.5167 37.7987 41.4333 37.932 41.36C38.1653 41.24 38.4587 41.1433 38.812 41.07C39.1653 40.9967 39.512 40.96 39.852 40.96ZM39.572 44.89C39.812 44.89 40.0087 44.8067 40.162 44.64C40.3153 44.4667 40.392 44.2467 40.392 43.98V43.86H40.232C39.8053 43.86 39.502 43.9 39.322 43.98C39.142 44.0533 39.052 44.18 39.052 44.36C39.052 44.5133 39.0987 44.64 39.192 44.74C39.292 44.84 39.4187 44.89 39.572 44.89ZM47.3796 38.9C47.6462 38.9 47.8629 38.9767 48.0296 39.13C48.2029 39.2767 48.2896 39.4667 48.2896 39.7V45.24C48.2896 45.4933 48.2096 45.6933 48.0496 45.84C47.8896 45.9867 47.6762 46.06 47.4096 46.06C47.1629 46.06 46.9596 45.9967 46.7996 45.87C46.6462 45.7367 46.5596 45.5567 46.5396 45.33C46.3996 45.5633 46.1929 45.7467 45.9196 45.88C45.6529 46.0133 45.3562 46.08 45.0296 46.08C44.6096 46.08 44.2329 45.9733 43.8996 45.76C43.5729 45.54 43.3162 45.2333 43.1296 44.84C42.9429 44.4467 42.8496 43.9967 42.8496 43.49C42.8496 42.9833 42.9396 42.54 43.1196 42.16C43.3062 41.7733 43.5629 41.4767 43.8896 41.27C44.2229 41.0633 44.6029 40.96 45.0296 40.96C45.3429 40.96 45.6296 41.0233 45.8896 41.15C46.1562 41.2767 46.3629 41.4467 46.5096 41.66V39.67C46.5096 39.4367 46.5862 39.25 46.7396 39.11C46.8996 38.97 47.1129 38.9 47.3796 38.9ZM45.5696 44.75C45.8829 44.75 46.1229 44.6433 46.2896 44.43C46.4562 44.2167 46.5396 43.91 46.5396 43.51C46.5396 43.1167 46.4562 42.8167 46.2896 42.61C46.1229 42.3967 45.8829 42.29 45.5696 42.29C45.2629 42.29 45.0262 42.3933 44.8596 42.6C44.6929 42.8067 44.6096 43.1033 44.6096 43.49C44.6096 43.89 44.6929 44.2 44.8596 44.42C45.0329 44.64 45.2696 44.75 45.5696 44.75ZM51.6196 40.96C52.3796 40.96 52.9396 41.1433 53.2996 41.51C53.6662 41.87 53.8496 42.42 53.8496 43.16V45.25C53.8496 45.5033 53.7729 45.7033 53.6196 45.85C53.4729 45.99 53.2662 46.06 52.9996 46.06C52.7662 46.06 52.5729 45.9933 52.4196 45.86C52.2729 45.7267 52.1929 45.5467 52.1796 45.32C52.0862 45.56 51.9296 45.7467 51.7096 45.88C51.4896 46.0133 51.2262 46.08 50.9196 46.08C50.5796 46.08 50.2729 46.0133 49.9996 45.88C49.7262 45.74 49.5096 45.55 49.3496 45.31C49.1962 45.0633 49.1196 44.7867 49.1196 44.48C49.1196 44.1267 49.2096 43.8467 49.3896 43.64C49.5762 43.4267 49.8696 43.2733 50.2696 43.18C50.6696 43.0867 51.2096 43.04 51.8896 43.04H52.1596V42.92C52.1596 42.6867 52.1062 42.52 51.9996 42.42C51.8929 42.3133 51.7129 42.26 51.4596 42.26C51.1862 42.26 50.7862 42.3533 50.2596 42.54C50.1062 42.5933 49.9762 42.62 49.8696 42.62C49.7029 42.62 49.5696 42.56 49.4696 42.44C49.3696 42.32 49.3196 42.1633 49.3196 41.97C49.3196 41.8233 49.3496 41.7033 49.4096 41.61C49.4696 41.5167 49.5662 41.4333 49.6996 41.36C49.9329 41.24 50.2262 41.1433 50.5796 41.07C50.9329 40.9967 51.2796 40.96 51.6196 40.96ZM51.3396 44.89C51.5796 44.89 51.7762 44.8067 51.9296 44.64C52.0829 44.4667 52.1596 44.2467 52.1596 43.98V43.86H51.9996C51.5729 43.86 51.2696 43.9 51.0896 43.98C50.9096 44.0533 50.8196 44.18 50.8196 44.36C50.8196 44.5133 50.8662 44.64 50.9596 44.74C51.0596 44.84 51.1862 44.89 51.3396 44.89Z" fill="#30D2AB"/>
<g clip-path="url(#clip0)">
<path d="M45.2624 25.0764V7.72949L17.4202 8.92348V26.2704C17.4201 26.6679 17.6168 27.0653 18.0102 27.2925L29.0397 33.6604C29.8241 34.1133 30.7905 34.1133 31.575 33.6604L44.6724 26.0986C45.0657 25.8714 45.2624 25.4739 45.2624 25.0764Z" fill="url(#paint0_linear)"/>
<path d="M18.0102 7.90148L31.1076 0.339668C31.8921 -0.113223 32.8585 -0.113223 33.6429 0.339668L44.6724 6.70756C45.4591 7.16178 45.4591 8.29733 44.6724 8.75155L31.5749 16.3133C30.7905 16.7662 29.8241 16.7662 29.0397 16.3133L18.0102 9.94547C17.2235 9.49125 17.2235 8.3557 18.0102 7.90148Z" fill="url(#paint1_linear)"/>
<path d="M22.2571 5.44958L36.3243 13.5713L40.0558 11.4169L25.9886 3.29523L22.2571 5.44958Z" fill="#DEA861"/>
<path d="M24.4873 4.16083L38.5545 12.2826L37.8236 12.7046L23.7563 4.58284L24.4873 4.16083Z" fill="#CC8241"/>
<path d="M36.3245 13.5713V16.653L40.056 14.4986V11.4169L36.3245 13.5713Z" fill="#CC8241"/>
<path d="M50.2305 13.1634C50.1691 13.1169 50.1035 13.0808 50.0359 13.0528L47.3525 11.5285C46.919 11.2008 46.295 11.3408 46.043 11.8223L41.0394 21.4572L40.9861 21.417C40.8269 21.2966 40.6523 21.215 40.4726 21.1659L40.4712 21.1633L38.1081 19.7821C37.9793 19.6847 37.8402 19.6129 37.6967 19.5624L37.6916 19.5594L37.6922 19.5606C37.0065 19.3218 36.2131 19.6037 35.8553 20.2874C35.5123 20.9427 35.6933 21.7499 36.2833 22.1959L40.8363 25.6378L43.7142 27.2727L50.4793 14.2728C50.6789 13.8919 50.5735 13.4226 50.2305 13.1634Z" fill="url(#paint2_linear)"/>
<path d="M40.9863 21.417C40.827 21.2966 40.6524 21.215 40.4727 21.1659L40.4713 21.1633L38.1083 19.7821C37.9794 19.6847 37.8404 19.6129 37.6969 19.5624L37.6918 19.5595L37.6924 19.5606C37.0068 19.3218 36.2133 19.6037 35.8555 20.2874C35.5125 20.9427 35.6935 21.7499 36.2836 22.1959L40.8364 25.6378L43.7144 27.2727L40.9863 21.417Z" fill="url(#paint3_linear)"/>
<path d="M43.7142 27.2726L39.1612 23.8307C38.5713 23.3847 38.3902 22.5775 38.7332 21.9223C39.1667 21.094 40.2403 20.8532 40.986 21.417L43.7142 23.4795L48.9208 13.4572C49.1728 12.9757 49.7968 12.8357 50.2304 13.1634C50.5733 13.4227 50.6786 13.8919 50.4792 14.2728L43.7142 27.2726Z" fill="#06DAAE"/>
</g>
<defs>
<linearGradient id="paint0_linear" x1="28.082" y1="20.8648" x2="31.9066" y2="20.8648" gradientUnits="userSpaceOnUse">
<stop stop-color="#CC8241"/>
<stop offset="1" stop-color="#DEA861"/>
</linearGradient>
<linearGradient id="paint1_linear" x1="23.59" y1="3.8513" x2="37.9131" y2="12.1207" gradientUnits="userSpaceOnUse">
<stop stop-color="#DEA861"/>
<stop offset="1" stop-color="#EBCBA0"/>
</linearGradient>
<linearGradient id="paint2_linear" x1="46.0585" y1="12.9125" x2="46.9288" y2="11.405" gradientUnits="userSpaceOnUse">
<stop stop-color="#236568"/>
<stop offset="1" stop-color="#2F878A"/>
</linearGradient>
<linearGradient id="paint3_linear" x1="40.0455" y1="23.3275" x2="40.7453" y2="22.1154" gradientUnits="userSpaceOnUse">
<stop stop-color="#236568"/>
<stop offset="1" stop-color="#2F878A"/>
</linearGradient>
<clipPath id="clip0">
<rect width="34" height="34" fill="white" transform="translate(17)"/>
</clipPath>
</defs>
</svg>
