<svg width="68" height="48" viewBox="0 0 68 48" fill="none" xmlns="http://www.w3.org/2000/svg">
<path d="M1.55 46.06C1.27 46.06 1.04667 45.98 0.88 45.82C0.72 45.6533 0.64 45.43 0.64 45.15V39.8C0.64 39.5267 0.713333 39.3167 0.86 39.17C1.00667 39.0233 1.21667 38.95 1.49 38.95H4.05C4.83 38.95 5.43667 39.15 5.87 39.55C6.30333 39.9433 6.52 40.4933 6.52 41.2C6.52 41.9 6.3 42.45 5.86 42.85C5.42667 43.25 4.82333 43.45 4.05 43.45H2.48V45.15C2.48 45.43 2.39667 45.6533 2.23 45.82C2.06333 45.98 1.83667 46.06 1.55 46.06ZM3.8 42.07C4.14 42.07 4.39 42 4.55 41.86C4.71667 41.72 4.8 41.5033 4.8 41.21C4.8 40.63 4.46667 40.34 3.8 40.34H2.48V42.07H3.8ZM9.55273 46.08C9.01273 46.08 8.53607 45.9767 8.12273 45.77C7.71607 45.5567 7.3994 45.2567 7.17273 44.87C6.95273 44.4833 6.84273 44.03 6.84273 43.51C6.84273 42.99 6.95273 42.54 7.17273 42.16C7.3994 41.7733 7.71607 41.4767 8.12273 41.27C8.5294 41.0633 9.00607 40.96 9.55273 40.96C10.0994 40.96 10.5761 41.0633 10.9827 41.27C11.3894 41.4767 11.7027 41.7733 11.9227 42.16C12.1494 42.54 12.2627 42.99 12.2627 43.51C12.2627 44.03 12.1494 44.4833 11.9227 44.87C11.7027 45.2567 11.3894 45.5567 10.9827 45.77C10.5761 45.9767 10.0994 46.08 9.55273 46.08ZM9.55273 44.75C10.1861 44.75 10.5027 44.3367 10.5027 43.51C10.5027 42.6833 10.1861 42.27 9.55273 42.27C8.9194 42.27 8.60273 42.6833 8.60273 43.51C8.60273 44.3367 8.9194 44.75 9.55273 44.75ZM16.1888 40.98C16.4155 40.96 16.5955 41.0133 16.7288 41.14C16.8622 41.26 16.9288 41.44 16.9288 41.68C16.9288 41.9467 16.8655 42.14 16.7388 42.26C16.6188 42.38 16.3988 42.4567 16.0788 42.49L15.7788 42.52C15.4455 42.56 15.2055 42.6667 15.0588 42.84C14.9188 43.0067 14.8488 43.2367 14.8488 43.53V45.24C14.8488 45.5133 14.7622 45.72 14.5888 45.86C14.4222 45.9933 14.2122 46.06 13.9588 46.06C13.7055 46.06 13.4922 45.9933 13.3188 45.86C13.1522 45.72 13.0688 45.5133 13.0688 45.24V41.78C13.0688 41.5267 13.1522 41.33 13.3188 41.19C13.4922 41.05 13.6988 40.98 13.9388 40.98C14.1855 40.98 14.3822 41.0467 14.5288 41.18C14.6822 41.3133 14.7588 41.5 14.7588 41.74V41.93C14.8655 41.6367 15.0388 41.41 15.2788 41.25C15.5255 41.09 15.7822 41.0033 16.0488 40.99L16.1888 40.98ZM22.4896 46.08C21.6896 46.08 21.0563 45.8533 20.5896 45.4C20.1229 44.9467 19.8896 44.33 19.8896 43.55C19.8896 43.0367 20.0029 42.5833 20.2296 42.19C20.4563 41.7967 20.7729 41.4933 21.1796 41.28C21.5929 41.0667 22.0629 40.96 22.5896 40.96C22.8696 40.96 23.1496 40.9967 23.4296 41.07C23.7096 41.1433 23.9563 41.2467 24.1696 41.38C24.3763 41.5067 24.4796 41.7 24.4796 41.96C24.4796 42.1667 24.4296 42.3367 24.3296 42.47C24.2363 42.5967 24.1129 42.66 23.9596 42.66C23.8596 42.66 23.7629 42.6467 23.6696 42.62C23.5763 42.5867 23.4729 42.54 23.3596 42.48C23.2263 42.42 23.1129 42.3767 23.0196 42.35C22.9263 42.3167 22.8229 42.3 22.7096 42.3C22.0496 42.3 21.7196 42.7033 21.7196 43.51C21.7196 43.91 21.8029 44.2167 21.9696 44.43C22.1429 44.6367 22.3896 44.74 22.7096 44.74C22.8229 44.74 22.9263 44.7267 23.0196 44.7C23.1196 44.6667 23.2296 44.62 23.3496 44.56C23.4829 44.5 23.5896 44.4567 23.6696 44.43C23.7563 44.3967 23.8496 44.38 23.9496 44.38C24.1029 44.38 24.2263 44.4467 24.3196 44.58C24.4196 44.7067 24.4696 44.8733 24.4696 45.08C24.4696 45.2067 24.4429 45.3233 24.3896 45.43C24.3363 45.53 24.2629 45.6067 24.1696 45.66C23.7096 45.94 23.1496 46.08 22.4896 46.08ZM27.5996 46.08C27.0596 46.08 26.5829 45.9767 26.1696 45.77C25.7629 45.5567 25.4463 45.2567 25.2196 44.87C24.9996 44.4833 24.8896 44.03 24.8896 43.51C24.8896 42.99 24.9996 42.54 25.2196 42.16C25.4463 41.7733 25.7629 41.4767 26.1696 41.27C26.5763 41.0633 27.0529 40.96 27.5996 40.96C28.1463 40.96 28.6229 41.0633 29.0296 41.27C29.4363 41.4767 29.7496 41.7733 29.9696 42.16C30.1963 42.54 30.3096 42.99 30.3096 43.51C30.3096 44.03 30.1963 44.4833 29.9696 44.87C29.7496 45.2567 29.4363 45.5567 29.0296 45.77C28.6229 45.9767 28.1463 46.08 27.5996 46.08ZM27.5996 44.75C28.2329 44.75 28.5496 44.3367 28.5496 43.51C28.5496 42.6833 28.2329 42.27 27.5996 42.27C26.9663 42.27 26.6496 42.6833 26.6496 43.51C26.6496 44.3367 26.9663 44.75 27.5996 44.75ZM34.4257 40.96C35.0124 40.96 35.449 41.1367 35.7357 41.49C36.0224 41.8367 36.1657 42.3667 36.1657 43.08V45.24C36.1657 45.4933 36.0857 45.6933 35.9257 45.84C35.7657 45.9867 35.549 46.06 35.2757 46.06C35.0024 46.06 34.7857 45.9867 34.6257 45.84C34.4657 45.6933 34.3857 45.4933 34.3857 45.24V43.16C34.3857 42.8667 34.3324 42.6533 34.2257 42.52C34.1257 42.3867 33.9724 42.32 33.7657 42.32C33.499 42.32 33.2857 42.4067 33.1257 42.58C32.9724 42.7467 32.8957 42.9733 32.8957 43.26V45.24C32.8957 45.4933 32.8157 45.6933 32.6557 45.84C32.4957 45.9867 32.279 46.06 32.0057 46.06C31.7324 46.06 31.5157 45.9867 31.3557 45.84C31.1957 45.6933 31.1157 45.4933 31.1157 45.24V41.78C31.1157 41.5467 31.199 41.3567 31.3657 41.21C31.5324 41.0567 31.749 40.98 32.0157 40.98C32.269 40.98 32.469 41.05 32.6157 41.19C32.769 41.33 32.8457 41.5133 32.8457 41.74C33.019 41.4867 33.2424 41.2933 33.5157 41.16C33.789 41.0267 34.0924 40.96 34.4257 40.96ZM42.0004 40.28C41.7004 40.28 41.4604 40.2033 41.2804 40.05C41.1071 39.89 41.0204 39.68 41.0204 39.42C41.0204 39.16 41.1071 38.9533 41.2804 38.8C41.4537 38.6467 41.6937 38.57 42.0004 38.57C42.2937 38.57 42.5304 38.6467 42.7104 38.8C42.8904 38.9533 42.9804 39.16 42.9804 39.42C42.9804 39.68 42.8904 39.89 42.7104 40.05C42.5371 40.2033 42.3004 40.28 42.0004 40.28ZM42.0904 41.08C42.6237 41.08 42.8904 41.2967 42.8904 41.73V45.24C42.8904 45.5133 42.8037 45.72 42.6304 45.86C42.4637 45.9933 42.2537 46.06 42.0004 46.06C41.7471 46.06 41.5337 45.9933 41.3604 45.86C41.1937 45.72 41.1104 45.5133 41.1104 45.24V42.39H39.3804V45.22C39.3804 45.4933 39.2937 45.7 39.1204 45.84C38.9537 45.98 38.7437 46.05 38.4904 46.05C38.2371 46.05 38.0237 45.98 37.8504 45.84C37.6837 45.7 37.6004 45.4933 37.6004 45.22V42.39H37.3104C36.7771 42.39 36.5104 42.17 36.5104 41.73C36.5104 41.2967 36.7771 41.08 37.3104 41.08H37.6004C37.6271 40.46 37.8237 39.97 38.1904 39.61C38.5571 39.2433 39.0537 39.0267 39.6804 38.96L39.8804 38.94C39.9271 38.9333 39.9937 38.93 40.0804 38.93C40.5737 38.93 40.8204 39.1367 40.8204 39.55C40.8204 39.75 40.7637 39.9067 40.6504 40.02C40.5371 40.1267 40.3971 40.1867 40.2304 40.2L40.0304 40.22C39.7904 40.2467 39.6204 40.3233 39.5204 40.45C39.4271 40.5767 39.3804 40.7467 39.3804 40.96V41.08H42.0904ZM47.0482 40.98C47.2749 40.96 47.4549 41.0133 47.5882 41.14C47.7215 41.26 47.7882 41.44 47.7882 41.68C47.7882 41.9467 47.7249 42.14 47.5982 42.26C47.4782 42.38 47.2582 42.4567 46.9382 42.49L46.6382 42.52C46.3049 42.56 46.0649 42.6667 45.9182 42.84C45.7782 43.0067 45.7082 43.2367 45.7082 43.53V45.24C45.7082 45.5133 45.6215 45.72 45.4482 45.86C45.2815 45.9933 45.0715 46.06 44.8182 46.06C44.5649 46.06 44.3515 45.9933 44.1782 45.86C44.0115 45.72 43.9282 45.5133 43.9282 45.24V41.78C43.9282 41.5267 44.0115 41.33 44.1782 41.19C44.3515 41.05 44.5582 40.98 44.7982 40.98C45.0449 40.98 45.2415 41.0467 45.3882 41.18C45.5415 41.3133 45.6182 41.5 45.6182 41.74V41.93C45.7249 41.6367 45.8982 41.41 46.1382 41.25C46.3849 41.09 46.6415 41.0033 46.9082 40.99L47.0482 40.98ZM54.3977 40.96C54.9377 40.96 55.3543 41.1233 55.6477 41.45C55.941 41.77 56.0877 42.3133 56.0877 43.08V45.24C56.0877 45.5133 56.001 45.72 55.8277 45.86C55.661 45.9933 55.451 46.06 55.1977 46.06C54.9443 46.06 54.731 45.9933 54.5577 45.86C54.391 45.72 54.3077 45.5133 54.3077 45.24V43.04C54.3077 42.7733 54.261 42.5867 54.1677 42.48C54.0743 42.3733 53.9377 42.32 53.7577 42.32C53.5243 42.32 53.3377 42.4033 53.1977 42.57C53.0577 42.7367 52.9877 42.9667 52.9877 43.26V45.24C52.9877 45.5133 52.9043 45.72 52.7377 45.86C52.571 45.9933 52.3577 46.06 52.0977 46.06C51.8443 46.06 51.631 45.9933 51.4577 45.86C51.291 45.72 51.2077 45.5133 51.2077 45.24V43.04C51.2077 42.7733 51.161 42.5867 51.0677 42.48C50.9743 42.3733 50.8377 42.32 50.6577 42.32C50.4243 42.32 50.2377 42.4033 50.0977 42.57C49.9643 42.7367 49.8977 42.9667 49.8977 43.26V45.24C49.8977 45.5133 49.811 45.72 49.6377 45.86C49.471 45.9933 49.261 46.06 49.0077 46.06C48.7543 46.06 48.541 45.9933 48.3677 45.86C48.201 45.72 48.1177 45.5133 48.1177 45.24V41.78C48.1177 41.52 48.2043 41.3233 48.3777 41.19C48.5577 41.05 48.771 40.98 49.0177 40.98C49.251 40.98 49.4443 41.0433 49.5977 41.17C49.7577 41.29 49.841 41.4667 49.8477 41.7C50.1743 41.2067 50.6743 40.96 51.3477 40.96C52.061 40.96 52.5377 41.25 52.7777 41.83C52.9443 41.5633 53.1677 41.3533 53.4477 41.2C53.7277 41.04 54.0443 40.96 54.3977 40.96ZM59.3823 40.96C60.1423 40.96 60.7023 41.1433 61.0623 41.51C61.4289 41.87 61.6123 42.42 61.6123 43.16V45.25C61.6123 45.5033 61.5356 45.7033 61.3823 45.85C61.2356 45.99 61.0289 46.06 60.7623 46.06C60.5289 46.06 60.3356 45.9933 60.1823 45.86C60.0356 45.7267 59.9556 45.5467 59.9423 45.32C59.8489 45.56 59.6923 45.7467 59.4723 45.88C59.2523 46.0133 58.9889 46.08 58.6823 46.08C58.3423 46.08 58.0356 46.0133 57.7623 45.88C57.4889 45.74 57.2723 45.55 57.1123 45.31C56.9589 45.0633 56.8823 44.7867 56.8823 44.48C56.8823 44.1267 56.9723 43.8467 57.1523 43.64C57.3389 43.4267 57.6323 43.2733 58.0323 43.18C58.4323 43.0867 58.9723 43.04 59.6523 43.04H59.9223V42.92C59.9223 42.6867 59.8689 42.52 59.7623 42.42C59.6556 42.3133 59.4756 42.26 59.2223 42.26C58.9489 42.26 58.5489 42.3533 58.0223 42.54C57.8689 42.5933 57.7389 42.62 57.6323 42.62C57.4656 42.62 57.3323 42.56 57.2323 42.44C57.1323 42.32 57.0823 42.1633 57.0823 41.97C57.0823 41.8233 57.1123 41.7033 57.1723 41.61C57.2323 41.5167 57.3289 41.4333 57.4623 41.36C57.6956 41.24 57.9889 41.1433 58.3423 41.07C58.6956 40.9967 59.0423 40.96 59.3823 40.96ZM59.1023 44.89C59.3423 44.89 59.5389 44.8067 59.6923 44.64C59.8456 44.4667 59.9223 44.2467 59.9223 43.98V43.86H59.7623C59.3356 43.86 59.0323 43.9 58.8523 43.98C58.6723 44.0533 58.5823 44.18 58.5823 44.36C58.5823 44.5133 58.6289 44.64 58.7223 44.74C58.8223 44.84 58.9489 44.89 59.1023 44.89ZM65.7298 40.98C65.9565 40.96 66.1365 41.0133 66.2698 41.14C66.4032 41.26 66.4698 41.44 66.4698 41.68C66.4698 41.9467 66.4065 42.14 66.2798 42.26C66.1598 42.38 65.9398 42.4567 65.6198 42.49L65.3198 42.52C64.9865 42.56 64.7465 42.6667 64.5998 42.84C64.4598 43.0067 64.3898 43.2367 64.3898 43.53V45.24C64.3898 45.5133 64.3032 45.72 64.1298 45.86C63.9632 45.9933 63.7532 46.06 63.4998 46.06C63.2465 46.06 63.0332 45.9933 62.8598 45.86C62.6932 45.72 62.6098 45.5133 62.6098 45.24V41.78C62.6098 41.5267 62.6932 41.33 62.8598 41.19C63.0332 41.05 63.2398 40.98 63.4798 40.98C63.7265 40.98 63.9232 41.0467 64.0698 41.18C64.2232 41.3133 64.2998 41.5 64.2998 41.74V41.93C64.4065 41.6367 64.5798 41.41 64.8198 41.25C65.0665 41.09 65.3232 41.0033 65.5898 40.99L65.7298 40.98Z" fill="#888888"/>
<g clip-path="url(#clip0)">
<path d="M47.9211 25.0765V7.72961L20.0789 8.92353V26.2704C20.0788 26.6679 20.2755 27.0654 20.6689 27.2926L31.6984 33.6604C32.4828 34.1133 33.4492 34.1133 34.2337 33.6604L47.3311 26.0986C47.7245 25.8715 47.9212 25.474 47.9211 25.0765Z" fill="url(#paint0_linear)"/>
<path d="M20.6689 7.90148L33.7663 0.339668C34.5507 -0.113223 35.5172 -0.113223 36.3016 0.339668L47.3311 6.70756C48.1178 7.16178 48.1178 8.29733 47.3311 8.75155L34.2337 16.3133C33.4493 16.7662 32.4828 16.7662 31.6984 16.3133L20.6689 9.94547C19.8822 9.49125 19.8822 8.3557 20.6689 7.90148Z" fill="url(#paint1_linear)"/>
<path d="M24.9158 5.44952L38.983 13.5713L42.7146 11.4169L28.6473 3.29517L24.9158 5.44952Z" fill="#DEA861"/>
<path d="M27.1457 4.16077L41.213 12.2825L40.482 12.7045L26.4148 4.58278L27.1457 4.16077Z" fill="#CC8241"/>
<path d="M46.9891 13.2306L45.7519 11.3748L44.5146 14.6592L45.1661 14.2831V15.3957L46.3376 14.7193V13.6067L46.9891 13.2306Z" fill="#5D3645"/>
<path d="M46.9891 14.6226L44.5146 16.0512V16.6529L46.9891 15.2243V14.6226Z" fill="#5D3645"/>
<path d="M38.9832 13.5713V16.6529L42.7147 14.4985V11.4169L38.9832 13.5713Z" fill="#CC8241"/>
</g>
<defs>
<linearGradient id="paint0_linear" x1="30.7407" y1="20.8648" x2="34.5653" y2="20.8648" gradientUnits="userSpaceOnUse">
<stop stop-color="#CC8241"/>
<stop offset="1" stop-color="#DEA861"/>
</linearGradient>
<linearGradient id="paint1_linear" x1="26.2487" y1="3.8513" x2="40.5718" y2="12.1207" gradientUnits="userSpaceOnUse">
<stop stop-color="#DEA861"/>
<stop offset="1" stop-color="#EBCBA0"/>
</linearGradient>
<clipPath id="clip0">
<rect width="34" height="34" fill="white" transform="translate(17)"/>
</clipPath>
</defs>
</svg>
