<svg width="68" height="48" viewBox="0 0 68 48" fill="none" xmlns="http://www.w3.org/2000/svg">
<path d="M10.7014 46.06C10.4214 46.06 10.198 45.98 10.0314 45.82C9.87137 45.6533 9.79137 45.43 9.79137 45.15V39.8C9.79137 39.5267 9.8647 39.3167 10.0114 39.17C10.158 39.0233 10.368 38.95 10.6414 38.95H13.2014C13.9814 38.95 14.588 39.15 15.0214 39.55C15.4547 39.9433 15.6714 40.4933 15.6714 41.2C15.6714 41.9 15.4514 42.45 15.0114 42.85C14.578 43.25 13.9747 43.45 13.2014 43.45H11.6314V45.15C11.6314 45.43 11.548 45.6533 11.3814 45.82C11.2147 45.98 10.988 46.06 10.7014 46.06ZM12.9514 42.07C13.2914 42.07 13.5414 42 13.7014 41.86C13.868 41.72 13.9514 41.5033 13.9514 41.21C13.9514 40.63 13.618 40.34 12.9514 40.34H11.6314V42.07H12.9514ZM18.7041 46.08C18.1641 46.08 17.6874 45.9767 17.2741 45.77C16.8674 45.5567 16.5508 45.2567 16.3241 44.87C16.1041 44.4833 15.9941 44.03 15.9941 43.51C15.9941 42.99 16.1041 42.54 16.3241 42.16C16.5508 41.7733 16.8674 41.4767 17.2741 41.27C17.6808 41.0633 18.1574 40.96 18.7041 40.96C19.2508 40.96 19.7274 41.0633 20.1341 41.27C20.5408 41.4767 20.8541 41.7733 21.0741 42.16C21.3008 42.54 21.4141 42.99 21.4141 43.51C21.4141 44.03 21.3008 44.4833 21.0741 44.87C20.8541 45.2567 20.5408 45.5567 20.1341 45.77C19.7274 45.9767 19.2508 46.08 18.7041 46.08ZM18.7041 44.75C19.3374 44.75 19.6541 44.3367 19.6541 43.51C19.6541 42.6833 19.3374 42.27 18.7041 42.27C18.0708 42.27 17.7541 42.6833 17.7541 43.51C17.7541 44.3367 18.0708 44.75 18.7041 44.75ZM25.3402 40.98C25.5669 40.96 25.7469 41.0133 25.8802 41.14C26.0135 41.26 26.0802 41.44 26.0802 41.68C26.0802 41.9467 26.0169 42.14 25.8902 42.26C25.7702 42.38 25.5502 42.4567 25.2302 42.49L24.9302 42.52C24.5969 42.56 24.3569 42.6667 24.2102 42.84C24.0702 43.0067 24.0002 43.2367 24.0002 43.53V45.24C24.0002 45.5133 23.9135 45.72 23.7402 45.86C23.5735 45.9933 23.3635 46.06 23.1102 46.06C22.8569 46.06 22.6435 45.9933 22.4702 45.86C22.3035 45.72 22.2202 45.5133 22.2202 45.24V41.78C22.2202 41.5267 22.3035 41.33 22.4702 41.19C22.6435 41.05 22.8502 40.98 23.0902 40.98C23.3369 40.98 23.5335 41.0467 23.6802 41.18C23.8335 41.3133 23.9102 41.5 23.9102 41.74V41.93C24.0169 41.6367 24.1902 41.41 24.4302 41.25C24.6769 41.09 24.9335 41.0033 25.2002 40.99L25.3402 40.98ZM32.391 40.98C32.6176 40.96 32.7976 41.0133 32.931 41.14C33.0643 41.26 33.131 41.44 33.131 41.68C33.131 41.9467 33.0676 42.14 32.941 42.26C32.821 42.38 32.601 42.4567 32.281 42.49L31.981 42.52C31.6476 42.56 31.4076 42.6667 31.261 42.84C31.121 43.0067 31.051 43.2367 31.051 43.53V45.24C31.051 45.5133 30.9643 45.72 30.791 45.86C30.6243 45.9933 30.4143 46.06 30.161 46.06C29.9076 46.06 29.6943 45.9933 29.521 45.86C29.3543 45.72 29.271 45.5133 29.271 45.24V41.78C29.271 41.5267 29.3543 41.33 29.521 41.19C29.6943 41.05 29.901 40.98 30.141 40.98C30.3876 40.98 30.5843 41.0467 30.731 41.18C30.8843 41.3133 30.961 41.5 30.961 41.74V41.93C31.0676 41.6367 31.241 41.41 31.481 41.25C31.7276 41.09 31.9843 41.0033 32.251 40.99L32.391 40.98ZM37.3628 44.42C37.5161 44.42 37.6394 44.48 37.7328 44.6C37.8328 44.72 37.8828 44.8767 37.8828 45.07C37.8828 45.3367 37.7528 45.54 37.4928 45.68C37.2661 45.7933 36.9961 45.89 36.6828 45.97C36.3761 46.0433 36.0928 46.08 35.8328 46.08C35.2861 46.08 34.8094 45.9767 34.4028 45.77C33.9961 45.5633 33.6828 45.2667 33.4628 44.88C33.2428 44.4933 33.1328 44.04 33.1328 43.52C33.1328 43.0267 33.2361 42.5867 33.4428 42.2C33.6561 41.8067 33.9494 41.5033 34.3228 41.29C34.7028 41.07 35.1294 40.96 35.6028 40.96C36.0628 40.96 36.4661 41.06 36.8128 41.26C37.1594 41.46 37.4261 41.7433 37.6128 42.11C37.8061 42.4767 37.9028 42.9067 37.9028 43.4C37.9028 43.5533 37.8661 43.6733 37.7928 43.76C37.7261 43.84 37.6261 43.88 37.4928 43.88H34.8528C34.8994 44.2 35.0028 44.43 35.1628 44.57C35.3228 44.71 35.5594 44.78 35.8728 44.78C36.0394 44.78 36.1928 44.7633 36.3328 44.73C36.4728 44.69 36.6294 44.6367 36.8028 44.57C36.9028 44.53 36.9994 44.4967 37.0928 44.47C37.1928 44.4367 37.2828 44.42 37.3628 44.42ZM35.6528 42.16C35.4194 42.16 35.2328 42.2367 35.0928 42.39C34.9528 42.5367 34.8694 42.7533 34.8428 43.04H36.4128C36.3728 42.4533 36.1194 42.16 35.6528 42.16ZM41.5071 44.79C41.9538 44.8167 42.1771 45.0167 42.1771 45.39C42.1771 45.6233 42.0871 45.7967 41.9071 45.91C41.7271 46.0233 41.4705 46.07 41.1371 46.05L40.8571 46.03C40.2571 45.9833 39.8005 45.8033 39.4871 45.49C39.1805 45.17 39.0271 44.7267 39.0271 44.16V42.39H38.7371C38.2038 42.39 37.9371 42.17 37.9371 41.73C37.9371 41.2967 38.2038 41.08 38.7371 41.08H39.0271V40.43C39.0271 40.1767 39.1071 39.9767 39.2671 39.83C39.4271 39.6767 39.6438 39.6 39.9171 39.6C40.1905 39.6 40.4071 39.6767 40.5671 39.83C40.7271 39.9767 40.8071 40.1767 40.8071 40.43V41.08H41.3571C41.8905 41.08 42.1571 41.2967 42.1571 41.73C42.1571 42.17 41.8905 42.39 41.3571 42.39H40.8071V44.31C40.8071 44.4367 40.8438 44.5433 40.9171 44.63C40.9971 44.7167 41.0971 44.7633 41.2171 44.77L41.5071 44.79ZM43.5399 46.06C43.2865 46.06 43.0732 45.9933 42.8999 45.86C42.7332 45.72 42.6499 45.5133 42.6499 45.24V41.8C42.6499 41.5267 42.7332 41.3233 42.8999 41.19C43.0732 41.05 43.2865 40.98 43.5399 40.98C43.7932 40.98 44.0032 41.05 44.1699 41.19C44.3432 41.3233 44.4299 41.5267 44.4299 41.8V45.24C44.4299 45.5133 44.3432 45.72 44.1699 45.86C44.0032 45.9933 43.7932 46.06 43.5399 46.06ZM43.5399 40.28C43.2399 40.28 42.9999 40.2033 42.8199 40.05C42.6465 39.89 42.5599 39.68 42.5599 39.42C42.5599 39.16 42.6465 38.9533 42.8199 38.8C42.9999 38.6467 43.2399 38.57 43.5399 38.57C43.8332 38.57 44.0699 38.6467 44.2499 38.8C44.4299 38.9533 44.5199 39.16 44.5199 39.42C44.5199 39.68 44.4299 39.89 44.2499 40.05C44.0765 40.2033 43.8399 40.28 43.5399 40.28ZM48.5824 40.98C48.809 40.96 48.989 41.0133 49.1224 41.14C49.2557 41.26 49.3224 41.44 49.3224 41.68C49.3224 41.9467 49.259 42.14 49.1324 42.26C49.0124 42.38 48.7924 42.4567 48.4724 42.49L48.1724 42.52C47.839 42.56 47.599 42.6667 47.4524 42.84C47.3124 43.0067 47.2424 43.2367 47.2424 43.53V45.24C47.2424 45.5133 47.1557 45.72 46.9824 45.86C46.8157 45.9933 46.6057 46.06 46.3524 46.06C46.099 46.06 45.8857 45.9933 45.7124 45.86C45.5457 45.72 45.4624 45.5133 45.4624 45.24V41.78C45.4624 41.5267 45.5457 41.33 45.7124 41.19C45.8857 41.05 46.0924 40.98 46.3324 40.98C46.579 40.98 46.7757 41.0467 46.9224 41.18C47.0757 41.3133 47.1524 41.5 47.1524 41.74V41.93C47.259 41.6367 47.4324 41.41 47.6724 41.25C47.919 41.09 48.1757 41.0033 48.4424 40.99L48.5824 40.98ZM51.9516 40.96C52.7116 40.96 53.2716 41.1433 53.6316 41.51C53.9983 41.87 54.1816 42.42 54.1816 43.16V45.25C54.1816 45.5033 54.1049 45.7033 53.9516 45.85C53.8049 45.99 53.5983 46.06 53.3316 46.06C53.0983 46.06 52.9049 45.9933 52.7516 45.86C52.6049 45.7267 52.5249 45.5467 52.5116 45.32C52.4183 45.56 52.2616 45.7467 52.0416 45.88C51.8216 46.0133 51.5583 46.08 51.2516 46.08C50.9116 46.08 50.6049 46.0133 50.3316 45.88C50.0583 45.74 49.8416 45.55 49.6816 45.31C49.5283 45.0633 49.4516 44.7867 49.4516 44.48C49.4516 44.1267 49.5416 43.8467 49.7216 43.64C49.9083 43.4267 50.2016 43.2733 50.6016 43.18C51.0016 43.0867 51.5416 43.04 52.2216 43.04H52.4916V42.92C52.4916 42.6867 52.4383 42.52 52.3316 42.42C52.2249 42.3133 52.0449 42.26 51.7916 42.26C51.5183 42.26 51.1183 42.3533 50.5916 42.54C50.4383 42.5933 50.3083 42.62 50.2016 42.62C50.0349 42.62 49.9016 42.56 49.8016 42.44C49.7016 42.32 49.6516 42.1633 49.6516 41.97C49.6516 41.8233 49.6816 41.7033 49.7416 41.61C49.8016 41.5167 49.8983 41.4333 50.0316 41.36C50.2649 41.24 50.5583 41.1433 50.9116 41.07C51.2649 40.9967 51.6116 40.96 51.9516 40.96ZM51.6716 44.89C51.9116 44.89 52.1083 44.8067 52.2616 44.64C52.4149 44.4667 52.4916 44.2467 52.4916 43.98V43.86H52.3316C51.9049 43.86 51.6016 43.9 51.4216 43.98C51.2416 44.0533 51.1516 44.18 51.1516 44.36C51.1516 44.5133 51.1983 44.64 51.2916 44.74C51.3916 44.84 51.5183 44.89 51.6716 44.89ZM58.2992 40.98C58.5258 40.96 58.7058 41.0133 58.8392 41.14C58.9725 41.26 59.0392 41.44 59.0392 41.68C59.0392 41.9467 58.9758 42.14 58.8492 42.26C58.7292 42.38 58.5092 42.4567 58.1892 42.49L57.8892 42.52C57.5558 42.56 57.3158 42.6667 57.1692 42.84C57.0292 43.0067 56.9592 43.2367 56.9592 43.53V45.24C56.9592 45.5133 56.8725 45.72 56.6992 45.86C56.5325 45.9933 56.3225 46.06 56.0692 46.06C55.8158 46.06 55.6025 45.9933 55.4292 45.86C55.2625 45.72 55.1792 45.5133 55.1792 45.24V41.78C55.1792 41.5267 55.2625 41.33 55.4292 41.19C55.6025 41.05 55.8092 40.98 56.0492 40.98C56.2958 40.98 56.4925 41.0467 56.6392 41.18C56.7925 41.3133 56.8692 41.5 56.8692 41.74V41.93C56.9758 41.6367 57.1492 41.41 57.3892 41.25C57.6358 41.09 57.8925 41.0033 58.1592 40.99L58.2992 40.98Z" fill="#5D66B1"/>
<g clip-path="url(#clip0)">
<path d="M43.1414 24.583V8.29578L17 9.41678V25.704C16.9999 26.0772 17.1846 26.4504 17.554 26.6637L27.9097 32.6425C28.6462 33.0677 29.5536 33.0677 30.2901 32.6425L42.5874 25.5427C42.9568 25.3294 43.1415 24.9562 43.1414 24.583Z" fill="url(#paint0_linear)"/>
<path d="M17.5545 8.45724L29.8518 1.35735C30.5884 0.932152 31.4957 0.932152 32.2322 1.35735L42.588 7.33624C43.3267 7.7627 43.3267 8.82892 42.588 9.25538L30.2906 16.3552C29.5541 16.7804 28.6467 16.7804 27.9102 16.3552L17.5545 10.3763C16.8158 9.94986 16.8158 8.8837 17.5545 8.45724Z" fill="url(#paint1_linear)"/>
<path d="M21.5415 6.15513L34.7494 13.7807L38.253 11.7579L25.0451 4.13232L21.5415 6.15513Z" fill="#DEA861"/>
<path d="M23.6353 4.94507L36.8432 12.5706L36.1569 12.9669L22.949 5.34131L23.6353 4.94507Z" fill="#CC8241"/>
<path d="M34.7493 13.7807V16.6741L38.2529 14.6513V11.7579L34.7493 13.7807Z" fill="#CC8241"/>
<path d="M48.9246 12.283L48.9249 12.2824L46.1977 10.7123L46.1975 10.7127C45.1209 10.1423 43.738 10.2235 42.2292 11.0946C38.7965 13.0765 36.0137 18.3936 36.0137 22.9706C36.0137 25.487 36.8559 27.2534 38.1838 28.0067L38.1828 28.0087L40.6747 29.4474L40.6772 29.4421C41.7726 30.0968 43.2095 30.0495 44.7841 29.1403C48.2169 27.1584 50.9998 21.8413 50.9998 17.2643C50.9998 14.8081 50.1978 13.0655 48.9246 12.283Z" fill="url(#paint2_linear)"/>
<path d="M49.59 23.14C51.7498 18.3784 51.3533 13.5006 48.7043 12.2451C46.0554 10.9895 42.1571 13.8317 39.9973 18.5932C37.8375 23.3548 38.2341 28.2326 40.883 29.4881C43.532 30.7437 47.4302 27.9015 49.59 23.14Z" fill="#A996EB"/>
<path d="M48.2558 22.5075C49.8148 19.0706 49.5285 15.5497 47.6165 14.6434C45.7044 13.7371 42.8905 15.7887 41.3316 19.2256C39.7726 22.6626 40.0588 26.1835 41.9709 27.0898C43.883 27.996 46.6968 25.9445 48.2558 22.5075Z" fill="#F2EFFA"/>
<path d="M45.4641 21.1843C45.766 20.5188 45.7106 19.837 45.3403 19.6615C44.9701 19.486 44.4252 19.8833 44.1233 20.5488C43.8214 21.2144 43.8768 21.8962 44.2471 22.0717C44.6174 22.2472 45.1622 21.8499 45.4641 21.1843Z" fill="#A996EB"/>
<path d="M44.4458 21.4391V16.407C44.4458 16.2201 44.5973 16.0685 44.7843 16.0685C44.9712 16.0685 45.1227 16.2201 45.1227 16.407V20.2666L47.8712 18.6798C48.0331 18.5862 48.2401 18.6418 48.3336 18.8037C48.427 18.9656 48.3715 19.1726 48.2096 19.2661L44.4458 21.4391Z" fill="#A996EB"/>
</g>
<defs>
<linearGradient id="paint0_linear" x1="27.0105" y1="20.6287" x2="30.6015" y2="20.6287" gradientUnits="userSpaceOnUse">
<stop stop-color="#CC8241"/>
<stop offset="1" stop-color="#DEA861"/>
</linearGradient>
<linearGradient id="paint1_linear" x1="22.7935" y1="4.65442" x2="36.2416" y2="12.4188" gradientUnits="userSpaceOnUse">
<stop stop-color="#DEA861"/>
<stop offset="1" stop-color="#EBCBA0"/>
</linearGradient>
<linearGradient id="paint2_linear" x1="43.9284" y1="19.3871" x2="46.483" y2="14.9625" gradientUnits="userSpaceOnUse">
<stop stop-color="#43386B"/>
<stop offset="1" stop-color="#7662BD"/>
</linearGradient>
<clipPath id="clip0">
<rect width="34" height="34" fill="white" transform="translate(17)"/>
</clipPath>
</defs>
</svg>
