<svg width="217" height="174" viewBox="0 0 217 174" fill="none" xmlns="http://www.w3.org/2000/svg">
<path d="M0 174H217V1.52588e-05H0V174Z" fill="white"/>
<path d="M170.261 165.982C169.203 165.982 168.14 165.938 167.065 165.831C162.957 165.424 158.792 165.221 154.704 164.64C145.322 163.306 135.936 163.228 126.486 163.228C122.733 163.228 118.98 163.19 115.228 163.19C109.767 163.19 104.307 163.269 98.8566 163.656C90.3531 164.261 81.8354 164.357 73.3164 164.357C72.0302 164.357 70.7441 164.355 69.4581 164.352C69.3757 164.352 69.2939 164.352 69.2116 164.352C64.4938 164.352 59.7943 164.66 55.0838 164.878C50.3526 165.097 45.752 165.457 41.0481 165.457C40.624 165.457 40.1981 165.454 39.7723 165.448C35.0721 165.379 27.9154 163.925 24.5626 160.219C22.5716 158.018 22.8415 152.72 24.8353 150.597C25.7064 149.67 27.1104 148.944 28.2574 148.502C31.5248 147.243 34.8497 147.24 38.2639 147.214C38.3058 147.213 38.3473 147.213 38.3892 147.213C40.7449 147.213 43.1948 147.718 45.4527 148.418C47.5068 149.055 49.6059 149.279 51.6952 149.675C53.4047 150 55.234 150.156 57.0429 150.156C58.2201 150.156 59.3889 150.09 60.5101 149.962C63.5436 149.616 66.5987 149.455 69.6413 149.182C73.4193 148.844 77.1165 148.109 80.8812 147.716C82.7659 147.519 84.6069 147.03 86.4874 146.808C91.4745 146.219 96.4707 146.092 101.467 146.076C101.868 146.075 102.268 146.074 102.668 146.074C105.051 146.074 107.435 146.093 109.816 146.093C111.75 146.093 113.682 146.087 115.615 146.087C122.228 146.087 128.835 146.159 135.43 146.796C137.474 146.993 139.504 146.873 141.52 147.343C143.543 147.815 145.585 148.245 147.658 148.329C149.432 148.401 151.211 148.424 152.992 148.424C156.16 148.424 159.333 148.349 162.49 148.337C162.807 148.336 163.248 148.334 163.794 148.334C170.863 148.334 195.478 148.679 193.712 155.654C193.033 158.335 189.088 161.824 186.875 162.946C184.079 164.365 181.022 165.204 177.945 165.487C175.351 165.726 172.822 165.982 170.261 165.982Z" fill="#E5F3ED"/>
<path d="M120.265 154.596L120.521 156.599L116.782 159.117L114.527 157.371L116.268 155.111L120.008 152.593L120.265 154.596Z" fill="#3B455A"/>
<path d="M120.391 153.924L117.507 128.382L120.977 99.7887L120.196 93.7063L104.699 93.116L104.14 103.016L106.742 128.421L116.529 155.229L120.391 153.924Z" fill="#3B455A"/>
<path d="M93.3277 95.9785L93.2869 121.753L98.463 154.934L102.189 154.897L104.237 124.212L109.03 93.5007L93.3277 95.9785Z" fill="#3B455A"/>
<path d="M102.183 156.471L98.174 158.531L96.1394 156.532L98.1336 154.493L102.163 154.452L102.183 156.471Z" fill="#3B455A"/>
<path d="M122.581 104.745C122.545 103.628 122.483 102.695 122.474 102.363C122.394 99.3664 122.128 96.3769 121.754 93.4019C121.418 90.736 120.995 84.1177 120.54 81.4681C120.164 79.2805 118.854 73.8202 117.908 71.7911C115.555 66.7451 116.282 66.279 105.945 64.7806C101.415 64.1238 100.344 66.9537 96.6403 70.2079C96.2749 70.5289 96.2951 72.4399 96.2105 72.946C96.0612 73.8371 95.9012 74.7267 95.7179 75.6121C95.5738 76.3081 95.4149 77.002 95.2368 77.691C93.3936 84.8257 91.2737 91.6843 90.841 99.0797C90.7182 101.166 90.0783 103.191 90.1349 105.296C90.1412 105.538 90.1611 105.797 90.3113 105.987C90.9367 106.777 94.3898 105.57 95.4392 105.467C98.1066 105.203 100.829 105.038 103.511 105.058C106.263 105.079 109.027 105.358 111.732 105.826C113.542 106.129 115.388 106.57 117.007 107.417C118.551 108.225 119.666 109.415 121.233 110.252C121.381 110.331 121.544 110.413 121.713 110.39C122.613 110.265 122.655 107.095 122.581 104.745Z" fill="#8EC3CB"/>
<path d="M105.933 66.2034C106.455 66.4616 107.686 66.5543 108.97 66.0501C109.229 65.9485 109.403 65.6984 109.4 65.42C109.39 64.6381 109.327 63.857 109.212 63.0838C110.175 62.7441 111.288 62.2351 111.456 61.2259C111.509 60.908 111.454 60.583 111.399 60.2655C111.173 58.9524 110.947 57.6394 110.72 56.3265C110.642 55.8724 110.559 55.4048 110.312 55.0159C109.88 54.3331 109.041 54.0345 108.246 53.896C106.217 53.5432 104.007 53.9836 102.434 55.3152C102.015 55.6697 101.637 56.0958 101.452 56.6128C101.168 57.4101 101.381 58.2897 101.595 59.1086C101.793 59.8646 101.991 60.6206 102.189 61.3767C102.417 62.2462 102.746 63.2345 103.582 63.5606C104.026 63.7337 104.55 63.6833 104.951 63.9395C105.66 64.3912 105.565 65.4472 105.933 66.2034Z" fill="#D5C6AB"/>
<path d="M94.7452 53.0513C94.398 49.7914 95.8187 46.358 98.4944 47.0407C100.115 47.4542 101.565 48.1389 103.197 47.5281C104.73 46.9544 105.837 47.1882 107.439 47.7611C109.173 48.3812 111.5 48.5273 113.07 49.4028C113.725 49.7684 114.248 50.3395 114.656 50.9705C116.068 53.1568 116.076 56.1714 114.675 58.3649C114.361 58.8571 113.985 59.3068 113.59 59.7364C112.772 60.6256 111.793 61.7237 110.668 62.0532C110.641 61.0442 111.558 57.8629 110.785 57.0359C109.558 55.7238 106.784 56.1816 105.263 56.5048C103.602 56.8571 102.123 58.0353 100.477 58.2872C96.843 58.8429 95.0616 56.0191 94.7452 53.0513Z" fill="#3B3631"/>
<path d="M125.094 19.7564C118.235 18.9331 109.44 22.3537 107.153 28.2586C105.308 22.2019 94.8892 18.1336 87.9879 18.4514C69.7764 19.2903 62.868 39.6783 70.0527 53.8234C73.9196 61.4367 79.6321 68.179 85.9108 74.2751C91.1687 79.3801 104.814 90.299 104.858 90.2653C104.9 90.3023 119.315 80.4143 124.935 75.7089C131.648 70.09 137.843 63.7853 142.262 56.4764C150.473 42.8968 143.194 21.9294 125.094 19.7564Z" fill="#D34E4E"/>
<path d="M94.2022 81.6111C93.7962 81.27 93.39 80.9275 92.9868 80.5858C93.0022 80.5901 93.0176 80.5943 93.033 80.5984C93.4232 80.929 93.8151 81.2596 94.2079 81.5898C94.2059 81.5967 94.204 81.6041 94.2022 81.6111Z" fill="#E0E0E0"/>
<path d="M104.761 90.21C104.761 90.21 104.761 90.21 104.761 90.21H104.761C104.707 90.21 99.4434 86.0135 94.2024 81.6111C94.2041 81.6041 94.2061 81.5967 94.208 81.5898C99.1122 85.7118 104.063 89.6736 104.772 90.2052C104.766 90.2084 104.762 90.21 104.761 90.21Z" fill="#7DABB2"/>
<path d="M104.772 90.2051C104.063 89.6735 99.1122 85.7117 94.208 81.5897C93.8153 81.2595 93.4234 80.9289 93.0332 80.5983C95.0435 81.1429 97.1367 81.4205 99.2854 81.4205C100.468 81.4205 101.669 81.3363 102.881 81.1662C110.022 80.164 116.607 76.6213 122.268 72.4854C128.123 68.2082 133.556 63.1761 138.287 57.7767C140.766 54.9466 143.066 51.9531 145.069 48.7924C144.554 51.467 143.595 54.0561 142.165 56.421C137.746 63.7299 131.551 70.0346 124.838 75.6537C119.3 80.2899 105.223 89.9582 104.772 90.2051Z" fill="#B94545"/>
<path d="M59.8568 111.589L46.1724 106.545L48.9931 130.573L47.3587 151.303L47.3149 151.44L47.3474 151.444L47.227 152.974H49.747L56.1717 133.287L59.3623 113.613L59.8568 111.589Z" fill="#E2BDAA"/>
<path d="M49.9029 152.692L47.1032 152.621L46.3882 154.989L46.4589 155.01L46.4411 155.012L51.0695 157.761L53.2701 158.006L53.5498 155.485L52.9555 155.048L49.9029 152.692Z" fill="#3B455A"/>
<path d="M69.1784 112.002L64.9408 154.452H62.5082L59.6414 131.051L54.9241 108.928L69.1784 112.002Z" fill="#E2BDAA"/>
<path d="M65.0644 154.097L68.6522 156.136L68.3159 157.833L61.9053 156.864L62.2824 154.42L65.0644 154.097Z" fill="#3B455A"/>
<path d="M75.5942 122.334C76.46 121.731 76.4787 120.682 76.4772 119.631C76.4743 117.657 76.1202 115.64 75.6688 113.722C74.8095 110.125 73.8354 105.792 73.407 101.13C72.2999 89.0816 68.5039 80.9965 68.5039 80.9965L67.279 77.7227C67.0355 77.297 66.7829 76.8761 66.5192 76.4612C64.9894 74.055 62.3331 69.9662 59.4921 69.2967C59.4329 69.2828 59.3732 69.2691 59.3131 69.2558C56.3263 68.5987 52.4991 68.9037 49.7996 70.3592C49.2875 70.6354 48.832 71.0032 48.38 71.3688C47.06 72.4361 45.9837 73.0138 45.4145 74.64C44.9204 76.052 44.8058 77.5928 44.5332 79.0559C43.9799 82.0287 43.6496 85.0372 43.2078 88.0271C42.3791 93.6343 41.6753 99.2597 40.7889 104.858C40.3326 107.74 39.8732 110.626 39.6575 113.538C39.4669 116.112 37.15 118.726 35.848 121.033C35.3949 121.836 41.9021 123.916 42.4852 124.052C45.1842 124.682 48.0556 124.521 50.8382 124.534C56.9359 124.561 63.0344 124.373 69.1191 123.969C71.1409 123.834 73.6325 123.447 75.4264 122.439C75.4857 122.405 75.5415 122.37 75.5942 122.334Z" fill="#474EBB"/>
<path d="M60.7546 62.7719C61.2743 64.336 60.5222 66.0038 59.8618 67.4293C59.2764 68.6931 59.0726 69.5251 60.5591 69.8661C61.3967 70.0582 62.8827 70.4168 63.6172 69.7741C64.1734 69.2871 63.8609 67.7836 63.5903 67.1861C63.3835 66.73 62.8367 66.4983 62.6423 66.037C62.5622 65.8467 62.5505 65.6353 62.5476 65.4289C62.5361 64.5854 62.6524 63.7407 62.8916 62.932C63.0539 62.383 63.2739 61.8436 63.3232 61.2731C63.3942 60.446 62.8104 59.4818 62.5038 58.7216C61.9331 57.3072 59.9469 55.4102 58.2838 56.5205C57.9051 56.7733 57.6847 57.2007 57.5002 57.6176C57.3902 57.8664 57.2856 58.1263 57.2823 58.3987C57.2695 59.4844 58.2586 59.6676 58.9417 60.1843C59.7841 60.8218 60.4228 61.7738 60.7546 62.7719Z" fill="#292949"/>
<path d="M57.5912 68.875C59.0338 68.5346 60.1618 67.3205 60.7039 65.9378C61.2457 64.5554 61.2741 63.0223 61.1242 61.5444C60.6253 56.6267 54.522 56.9425 52.4553 60.7115C50.6539 63.9964 53.3968 69.8655 57.5912 68.875Z" fill="#E2BDAA"/>
<path d="M57.5899 68.3453C57.5656 68.9056 57.5413 69.4657 57.5172 70.026C57.5137 70.108 57.5068 70.198 57.4497 70.2567C57.3844 70.3235 57.2794 70.3248 57.1861 70.3215C56.7308 70.3059 56.2753 70.29 55.8198 70.2743C55.5941 70.2663 55.3591 70.2563 55.1601 70.1491C54.7246 69.9148 54.6343 69.323 54.704 68.8323C54.7737 68.3416 54.9492 67.847 54.8453 67.3627C55.786 67.827 56.6791 66.7774 57.6196 67.242L57.5899 68.3453Z" fill="#E2BDAA"/>
<path d="M55.6213 53.0187C54.0188 53.5644 52.9911 55.1891 51.4272 55.8379C50.5301 56.2101 49.4687 56.2573 48.737 56.8967C47.0971 58.3292 48.4152 61.3352 47.0679 63.0472C46.7877 63.4032 46.4101 63.6723 46.1287 64.0272C45.5222 64.793 45.4427 65.8381 45.3885 66.8145C45.3763 67.0342 45.3742 67.2734 45.4121 67.4944C45.6229 69.7492 48.8885 69.6057 50.1857 69.4612C51.6092 69.3027 51.1346 68.5101 51.1346 68.5101L51.083 68.4468C50.9463 67.5314 51.3219 66.555 52.0395 65.9719C52.3058 65.7555 52.6209 65.5832 52.8086 65.2957C53.23 64.6504 52.8277 63.7956 52.8895 63.0267C53.1389 59.9308 58.3232 60.5944 59.7862 58.3901C61.5801 55.6872 58.648 51.988 55.6213 53.0187Z" fill="#292949"/>
<path d="M46.3883 73.2794L29.6504 88.2312L32.4723 93.0093L48.4103 82.6719L46.3883 73.2794Z" fill="#A0A1A3"/>
<path d="M24.5968 59.7688C24.1693 57.9427 25.2944 56.1122 27.1161 55.6761C28.9426 55.2387 30.7771 56.3682 31.2133 58.1989L31.214 58.2026L36.8071 71.8981C38.1239 75.1225 40.7101 77.659 43.9549 78.9083L55.8335 83.4821L46.494 74.7323C46.3421 74.6142 46.2004 74.4824 46.0719 74.3369L46.0674 74.3328L46.068 74.3321C45.7408 73.9604 45.496 73.5059 45.373 72.9899C44.972 71.3078 46.0077 69.6181 47.686 69.2161C48.4477 69.0338 49.2093 69.1504 49.8532 69.4865L49.8547 69.4845L61.9242 76.2011C67.1403 79.1034 70.9002 84.0685 72.2864 89.8847L73.8308 96.3642C74.8765 100.752 72.1755 105.159 67.798 106.207C66.1058 106.612 64.4132 106.451 62.9101 105.854C62.4988 105.69 62.1017 105.496 61.7233 105.269L37.1185 93.1404C33.8399 91.5246 31.4509 88.5273 30.6018 84.9655L24.5961 59.769L24.5968 59.7688Z" fill="#E8E9EA"/>
<path d="M74.7623 99.1845L73.3794 102.013L72.1477 101.473L72.667 99.3261L71.9661 99.3418L73.4436 97.0661L74.7996 97.4537L74.7623 99.1845Z" fill="#E2BDAA"/>
<path d="M63.7586 70.5335L59.4883 69.2653L61.5444 74.8139L71.5088 86.2281L71.4226 85.2961L72.5641 97.1172L75.2069 98.5229L78.3272 83.8941L63.7586 70.5335Z" fill="#474EBB"/>
<path d="M32.1732 91.491L34.397 91.1543L33.7914 87.5127L30.2749 86.0628L28.7915 88.9947L32.1732 91.491Z" fill="#E2BDAA"/>
<path d="M78.8943 70.4965L79.2328 68.2678L82.8654 68.8792L84.3078 72.4053L81.3809 73.8887L78.8943 70.4965Z" fill="#E2BDAA"/>
<path d="M132.725 70.8758L132.851 68.6251L129.171 68.4739L127.036 71.627L129.595 73.6826L132.725 70.8758Z" fill="#E2BDAA"/>
<path d="M164.85 67.591L180.761 84.8794L168.668 95.1704L166.88 93.0093L171.616 83.1444L162.34 74.9468L164.85 67.591Z" fill="#EBB044"/>
<path d="M168.81 110.674L169.528 127.369L167.423 155.755L164.273 155.979L160.446 130.198L155.151 108.381L168.81 110.674Z" fill="#474EBB"/>
<path d="M164.385 157.31L167.913 158.774L169.495 156.946L167.671 155.36L164.264 155.603L164.385 157.31Z" fill="#3B455A"/>
<path d="M146.511 104.766L145.82 117.385L147.871 154.907L151.025 155.065L155.752 130.456L159.922 103.468L146.511 104.766Z" fill="#474EBB"/>
<path d="M150.94 156.397L147.445 157.936L145.824 156.141L147.615 154.517L151.026 154.688L150.94 156.397Z" fill="#3B455A"/>
<path d="M164.85 67.5909L155.008 66.5338C155.008 66.5338 149.532 67.1202 145.817 80.1535C143.75 87.4047 143.121 98.8293 142.97 107.539C143.202 108.781 144.553 114.224 150.263 113.3C160.069 111.715 165.289 110.13 169.559 110.922C173.197 111.715 172.89 106.695 172.49 102.864L171.04 91.0104L164.85 67.5909Z" fill="#EBB044"/>
<path d="M162.95 55.311C160.469 54.7629 157.916 54.2718 155.432 54.7646C154.888 54.8725 154.304 55.0624 154.009 55.5329C153.895 55.7153 153.835 55.9254 153.779 56.1334C153.152 58.4685 152.357 61.9295 153.891 64.081C154.183 64.4912 154.576 64.8168 154.998 65.0813C155.562 65.4348 156.187 65.6751 156.833 65.803C156.699 66.3835 156.513 66.9518 156.277 67.4986C156.845 68.3569 159.495 68.4597 159.984 67.6369C160.012 66.9249 160.039 66.213 160.067 65.5009C160.389 65.3704 160.701 65.2116 160.993 65.0185C162.125 64.2711 162.872 63.1369 163.305 61.8678C163.777 60.4862 164.441 59.1727 164.872 57.7644C165.029 57.2513 165.152 56.6658 164.883 56.2019C164.597 55.7082 163.978 55.54 163.422 55.4161C163.265 55.3808 163.107 55.3458 162.95 55.311Z" fill="#B77858"/>
<path d="M154.692 56.6461C155.919 55.8557 157.758 55.5156 158.911 55.5991C162.397 55.8523 163.674 58.4181 163.86 61.6304C164.82 60.4069 166.622 58.8683 166.731 57.2941C166.82 56.0058 166.642 54.2486 165.922 53.1359C165.248 52.0949 163.525 51.5229 162.5 50.9196C161.534 50.351 160.568 49.7823 159.603 49.2135C159.402 49.0952 159.195 48.9747 158.966 48.9349C158.694 48.8877 158.417 48.9573 158.151 49.0262C155.868 49.6176 153.584 50.2092 151.301 50.8006C150.863 50.9141 150.363 51.0801 150.202 51.5042C150.103 51.7624 150.161 52.0506 150.22 52.3203C150.479 53.5083 150.977 54.7226 151.1 55.9258C151.239 56.6248 151.655 60.2081 152.89 59.7947C153.253 59.2005 153.307 58.4681 153.59 57.8317C153.799 57.3613 154.195 56.9667 154.692 56.6461Z" fill="#292949"/>
<path d="M155.008 66.5339L151.37 67.6436L138.084 81.5942L137.293 86.1917L143.645 96.7026L145.36 92.8498L142.671 85.0821L146.941 82.0699L152.635 69.2289L155.008 66.5339Z" fill="#E0E0E1"/>
<path d="M178.162 58.6994C178.446 56.8455 177.183 55.1085 175.332 54.8153C173.478 54.5217 171.736 55.7906 171.443 57.6498L171.443 57.6535L166.929 71.7436C165.867 75.0607 163.485 77.7912 160.347 79.2895L148.859 84.7749L157.491 75.3241C157.634 75.1942 157.765 75.052 157.881 74.8971L157.885 74.8925L157.885 74.8919C158.183 74.4956 158.391 74.0234 158.474 73.4997C158.743 71.7912 157.58 70.1874 155.875 69.9174C155.102 69.795 154.351 69.9705 153.736 70.3557L153.734 70.354L142.222 77.9906C137.247 81.2907 133.883 86.5336 132.952 92.44L131.915 99.0205C131.213 103.476 134.247 107.659 138.693 108.363C140.412 108.635 142.086 108.343 143.539 107.63C143.936 107.435 144.317 107.21 144.677 106.955L168.266 92.9459C171.41 91.0793 173.559 87.9051 174.129 84.2879L178.162 58.6997L178.162 58.6994Z" fill="#E8E9EA"/>
<path d="M132.139 90.4014L134.093 89.285L135.867 92.5196L134.003 95.8408L131.027 94.4606L132.139 90.4014Z" fill="#B77858"/>
<path d="M172.172 92.8495L172.623 90.6408L169.004 89.9556L166.434 92.7644L168.668 95.1704L172.172 92.8495Z" fill="#B77858"/>
</svg>
